<svg data-component="svg" class="map__svg" viewBox="0 0 10240 7680"
  style="background-image: url(&quot;https://mapsapi.tmol.io/maps/geometry/image/58/62/586229?removeFilters=ISM_Shadow&amp;avertaFonts=true&amp;app=PRD2663_EDP_NA&quot;); transform: rotate(0deg);">
  <g class="seats"></g>
  <g class="polygons">
    <path data-component="svg__section" data-section-id="s_130" data-section-name="328"
      class="block is-available is-filtered minimum"
      d="M5841.49,6365.71C5761.52,6389.88,5676.39,6409.46,5586.04,6422.91C5586.04,6422.91,5614.99,6624.16,5614.99,6624.16C5619.43,6623.43,5623.91,6622.68,5628.42,6621.9C5709.42,6607.99,5802.29,6587.43,5902.4,6557.12L5902.4,6557.12C5902.4,6557.12,5871.95,6461.42,5841.49,6365.71Z">
    </path>
    <path data-component="svg__section" data-section-id="s_131" data-section-name="113"
      class="block is-available is-filtered middle"
      d="M6298.9,4364.95L6077.89,4654.32L6440.68,4930.17L6659.5,4639.14L6298.9,4364.95Z"></path>
    <path data-component="svg__section" data-section-id="s_132" data-section-name="405" class="block"
      d="M8337.25,2084.33L8337.25,2446.82L8948.36,2446.82L8948.35,2084.33L8337.25,2084.33Z"></path>
    <path data-component="svg__section" data-section-id="s_133" data-section-name="219"
      class="block is-available is-filtered minimum"
      d="M4979.41,5831.74C4939.89,5964.94,4900.36,6098.14,4900.36,6098.14C4980.45,6119.73,5053.47,6134.1,5115.66,6143.65C5227.66,6160.85,5303.69,6162.27,5322.91,6162.32C5323.92,6162.3,5324.94,6162.28,5325.96,6162.26C5325.96,6162.26,5325.73,6023.97,5325.5,5885.67L5325.5,5885.67C5324.36,5885.72,5323.22,5885.77,5323.22,5885.77C5321.98,5885.81,5320.44,5885.85,5318.62,5885.88C5315.84,5885.95,5312.4,5885.98,5308.33,5885.98C5274.78,5885.98,5199.18,5883.14,5098.8,5862.43L5098.8,5862.43C5062.04,5854.84,5021.95,5844.85,4979.41,5831.74Z">
    </path>
    <path data-component="svg__section" data-section-id="s_134" data-section-name="329"
      class="block is-available is-filtered middle"
      d="M5585.16,6423.05C5503.47,6435.17,5417.52,6442.28,5327.31,6443.22C5327.31,6443.22,5327.31,6650.83,5327.31,6650.83C5364.24,6650.79,5469.07,6648.27,5614.11,6624.33L5614.11,6624.33C5614.11,6624.33,5599.64,6523.69,5585.16,6423.05Z">
    </path>
    <path data-component="svg__section" data-section-id="s_135" data-section-name="218"
      class="block is-available is-filtered middle"
      d="M5670.96,5835.59C5567.74,5866.11,5453.05,5885.02,5326.86,5885.65C5326.86,5885.65,5326.86,6162.28,5326.86,6162.28C5467.16,6159.21,5600.5,6135.87,5723.19,6101.54C5731.19,6099.3,5739.16,6097.01,5747.08,6094.68L5747.08,6094.68C5747.08,6094.68,5709.02,5965.14,5670.96,5835.59Z">
    </path>
    <path data-component="svg__section" data-section-id="s_136" data-section-name="131" class="block"
      d="M3016.33,2253.58L2950.23,2480.11L3131.48,2532.61L3160.78,2446.83L3113.84,2399.58L3146.3,2290.14L3016.33,2253.58Z">
    </path>
    <path data-component="svg__section" data-section-id="s_137" data-section-name="404" class="block"
      d="M8337.25,1845.32L8337.25,2083.42L8948.35,2083.42L8948.35,1881.48L8856.46,1760.27L8856.44,1466.41L8711.46,1476.55L8337.25,1845.32Z">
    </path>
    <path data-component="svg__section" data-section-id="s_138" data-section-name="130" class="block"
      d="M3161.47,2447.54L3132.04,2533.7L2864.1,2456.09L2799.06,2679.98L2802.37,2699.52L3444.3,2733.07L3161.47,2447.54Z">
    </path>
    <path data-component="svg__section" data-section-id="s_139" data-section-name="408" class="block"
      d="M8337.25,3114.01L8337.25,3468.61L8939.99,3590.02L8948.38,3569.08L8948.37,3114.01L8337.25,3114.01Z"></path>
    <path data-component="svg__section" data-section-id="s_70" data-section-name="116"
      class="block is-available is-filtered minimum"
      d="M5698.27,5008.82C5685.46,5020.48,5671.57,5032.28,5656.65,5043.85C5634.23,5061.26,5609.45,5078.17,5582.49,5093.31C5564.43,5103.47,5545.37,5112.84,5525.38,5121.06C5525.38,5121.06,5717.78,5614.04,5717.78,5614.04C5766.25,5594.38,5816.45,5570.47,5866.99,5541.34C5908.36,5517.51,5949.97,5490.21,5990.99,5458.88C6012.5,5442.46,6033.85,5424.95,6054.94,5406.27L6054.94,5406.27C6054.94,5406.27,5876.6,5207.54,5698.27,5008.82Z">
    </path>
    <path data-component="svg__section" data-section-id="s_72" data-section-name="434" class="block"
      d="M2208.84,3575.02L1682.41,3861.96L1899.77,4229.12L2415.41,3948.1L2208.84,3575.02Z"></path>
    <path data-component="svg__section" data-section-id="s_71" data-section-name="231" class="block"
      d="M2234.24,2787.83L2220.46,2831.39C2263.2,3006.16,2305.94,3180.92,2305.94,3180.92C2310.54,3198.33,2315.31,3215.44,2320.23,3232.26C2320.23,3232.26,2572.87,3161.6,2825.51,3090.94L2825.51,3090.94L2751.73,2800.55L2234.24,2787.83Z">
    </path>
    <path data-component="svg__section" data-section-id="s_78" data-section-name="125"
      class="block is-available is-filtered minimum"
      d="M3985.34,3694.72L3341.41,4039.46L3494.75,4254.03L4080.24,3867.37L4066.77,3849.3L3985.34,3694.72Z"></path>
    <path data-component="svg__section" data-section-id="s_77" data-section-name="222"
      class="block is-available is-filtered minimum"
      d="M4248.19,5289.8L3820.5,5605.12C3825.64,5611.89,3830.78,5618.66,3830.78,5618.66C3962.97,5785.8,4065.2,5897.91,4065.6,5898.31C4082.64,5913.4,4099.81,5928.04,4117.05,5942.22C4117.05,5942.22,4471.02,5540.75,4471.02,5540.75C4398.1,5474.9,4326.32,5396.53,4258.4,5303.3L4258.4,5303.3C4258.4,5303.3,4253.29,5296.55,4248.19,5289.8Z">
    </path>
    <path data-component="svg__section" data-section-id="s_79" data-section-name="234" class="block"
      d="M2769.6,1498.64L2592.89,1654.04L2491.94,1973.18L2964.01,2115.7L3005.61,1981.59L3109.56,1878.6L2769.6,1498.64Z">
    </path>
    <path data-component="svg__section" data-section-id="s_74" data-section-name="115"
      class="block is-available is-filtered middle"
      d="M5824.76,4861.24L5824.76,4861.24C5814.71,4874.41,5804.67,4887.58,5804.67,4887.58C5798.61,4896.57,5789.93,4908.91,5776.68,4925.41C5769.22,4934.68,5760.32,4945.27,5749.99,4956.73C5735.62,4972.71,5718.54,4990.3,5698.93,5008.2C5698.93,5008.2,6055.62,5405.66,6055.62,5405.66C6061.07,5400.82,6066.51,5395.89,6071.93,5390.9C6087.68,5376.37,6103.25,5361.15,6118.62,5345.23C6155.16,5307.36,6190.48,5265.51,6224.53,5218.42C6224.53,5218.42,6237.25,5201.5,6249.96,5184.58L6249.96,5184.58L5824.76,4861.24Z">
    </path>
    <path data-component="svg__section" data-section-id="s_73" data-section-name="315" class="block"
      d="M7766.92,4231.65L7681.34,4443.57L7861.43,4516.5L7946.22,4304.27L7766.92,4231.65Z"></path>
    <path data-component="svg__section" data-section-id="s_75" data-section-name="313" class="block"
      d="M7907.12,3884.42L7836.71,4058.77L8015.35,4131.14L8085.1,3956.52L7907.12,3884.42Z"></path>
    <path data-component="svg__section" data-section-id="s_140" data-section-name="322" class="block"
      d="M6939.94,5488.05L6810.07,5659.84L6963.75,5776.65L7093.66,5604.93L6939.94,5488.05Z"></path>
    <path data-component="svg__section" data-section-id="s_141" data-section-name="214"
      class="block is-available is-filtered minimum"
      d="M6585.86,5041.5L6394.59,5293.92L6815.31,5613.56L7005.9,5360.84L6585.86,5041.5Z"></path>
    <path data-component="svg__section" data-section-id="s_142" data-section-name="111"
      class="block is-available is-filtered middle"
      d="M6539.27,3867.01L6528.89,3893.24L6525.79,3904.53C6524.45,3908.33,6523.1,3912.14,6521.76,3915.95C6517.6,3926.91,6511.33,3941.39,6501.99,3959.19C6496.38,3969.9,6489.66,3981.8,6481.64,3994.85C6477.74,4000.99,6473.84,4007.14,6469.94,4013.28C6458.48,4030.75,6444.89,4049.95,6428.2,4071.55C6428.2,4071.55,6637.19,4230.4,6846.17,4389.25L6846.17,4389.25L6889.52,4331.24C6945.95,4373.58,7002.39,4415.92,7002.39,4415.92C7007.34,4409.01,7013.2,4400.72,7019.74,4391.19C7033.67,4370.91,7050.78,4344.95,7069.13,4314.76C7080.01,4296.87,7091.31,4277.48,7102.66,4256.91C7125.23,4215.98,7147.91,4170.35,7167.87,4121.58L7167.87,4121.58C7167.87,4121.58,6853.57,3994.3,6539.27,3867.01Z">
    </path>
    <path data-component="svg__section" data-section-id="s_143" data-section-name="220"
      class="block is-available is-filtered middle"
      d="M4681.69,5697.9C4599.53,5824.26,4517.37,5950.62,4517.37,5950.62C4559.52,5972.32,4601.32,5991.8,4642.45,6009.28C4709.76,6037.89,4775.24,6061.16,4837.36,6080.09C4858.48,6086.53,4879.21,6092.47,4899.5,6097.94C4899.5,6097.94,4978.55,5831.51,4978.55,5831.51C4972.31,5829.58,4966.02,5827.58,4959.67,5825.52C4875.39,5798.06,4782.27,5758.31,4686.51,5700.81L4686.51,5700.81C4684.9,5699.84,4683.3,5698.87,4681.69,5697.9Z">
    </path>
    <path data-component="svg__section" data-section-id="s_144" data-section-name="420"
      class="block is-available is-filtered minimum"
      d="M6144.24,6498.79C6141.14,6500.19,6138.03,6501.59,6134.92,6502.97C6029.51,6549.98,5914.11,6591.15,5789.3,6621.79C5789.3,6621.79,5932.29,7132.91,5932.29,7132.91C5948.53,7128.94,5964.85,7124.76,5981.21,7120.38C5981.21,7120.38,6002.58,7176.97,6023.95,7233.56L6023.95,7233.56C6031.92,7231.2,6039.9,7228.85,6039.9,7228.85C6039.9,7228.85,6088.57,7214.49,6165.47,7187.09C6216.68,7168.85,6280.5,7144.79,6350.99,7115.29C6374.28,7105.54,6398.31,7095.2,6422.85,7084.27L6422.85,7084.27C6422.85,7084.27,6283.54,6791.53,6144.24,6498.79Z">
    </path>
    <path data-component="svg__section" data-section-id="s_145" data-section-name="320" class="block"
      d="M7206.57,5135.32L7074.62,5309.88L7228.42,5426.8L7360.41,5252.31L7206.57,5135.32Z"></path>
    <path data-component="svg__section" data-section-id="s_147" data-section-name="321"
      class="block is-available is-filtered middle"
      d="M7074.11,5310.61L6940.51,5487.35L7094.24,5604.24L7227.91,5427.53L7074.11,5310.61Z"></path>
    <path data-component="svg__section" data-section-id="s_148" data-section-name="217" class="block"
      d="M5964.2,5705.28C5944.45,5717.26,5923.99,5728.96,5902.8,5740.28C5833.5,5777.29,5756.52,5810.22,5671.8,5835.33C5671.8,5835.33,5747.92,6094.43,5747.92,6094.43C5822.73,6072.36,5893.45,6046.3,5959.22,6018.38C6002.74,5999.9,6044.1,5980.59,6083.07,5961.05C6091.75,5956.7,6100.83,5951.8,6110.2,5946.45L6110.2,5946.45C6110.2,5946.45,6037.2,5825.87,5964.2,5705.28Z">
    </path>
    <path data-component="svg__section" data-section-id="s_149" data-section-name="413" class="block"
      d="M7808.74,4732.41L7657.16,4933.6L8073.06,5253.1L8283.31,4974.84L8284.48,4973.2L7808.74,4732.41Z"></path>
    <path data-component="svg__section" data-section-id="s_67" data-section-name="312" class="block"
      d="M7979.41,3705.46L7907.48,3883.57L8085.46,3955.66L8156.73,3777.28L7979.41,3705.46Z"></path>
    <path data-component="svg__section" data-section-id="s_66" data-section-name="118"
      class="block is-available is-filtered middle"
      d="M5121.3,5113.16C5025.47,5360.04,4929.64,5606.92,4929.64,5606.92C4952.57,5616.36,4976.14,5625.27,5000.32,5633.52C5032.25,5644.44,5065.26,5654.24,5100.16,5662.86C5100.16,5662.86,5071.1,5797.56,5071.1,5797.56C5151.26,5816.31,5238.98,5828.15,5330.15,5830.24C5330.15,5830.24,5329.25,5154.41,5329.25,5154.41C5328.12,5154.4,5324.03,5154.3,5322.48,5154.27C5318.53,5154.2,5313.27,5154.03,5306.84,5153.66C5287.58,5152.56,5257.85,5149.68,5221.77,5142.31L5221.77,5142.31C5191.86,5136.21,5157.6,5127.01,5121.3,5113.16Z">
    </path>
    <path data-component="svg__section" data-section-id="s_68" data-section-name="440" class="block"
      d="M1891.09,1331.56L1867.98,1355.93L1749.9,1717.68L2150.23,1848.2L2254.3,1529.17L1891.09,1331.56Z"></path>
    <path data-component="svg__section" data-section-id="s_63" data-section-name="314" class="block"
      d="M7836.39,4059.58L7767.24,4230.8L7946.52,4303.43L8015.03,4131.94L7836.39,4059.58Z"></path>
    <path data-component="svg__section" data-section-id="s_65" data-section-name="119"
      class="block is-available is-filtered minimum"
      d="M4942.95,5006.27C4767.78,5206.53,4592.62,5406.79,4592.62,5406.79C4621.82,5429.98,4653.64,5453.54,4688.0,5476.68C4743.37,5513.99,4805.35,5550.25,4873.57,5582.21C4891.54,5590.66,4909.97,5598.78,4928.81,5606.56C4928.81,5606.56,5120.47,5112.82,5120.47,5112.82C5113.09,5109.99,5105.63,5106.98,5098.11,5103.75C5068.21,5090.94,5037.29,5074.87,5006.59,5054.75C4988.4,5042.81,4970.29,5029.45,4952.5,5014.49L4952.5,5014.49C4949.3,5011.8,4946.12,5009.06,4942.95,5006.27Z">
    </path>
    <path data-component="svg__section" data-section-id="s_64" data-section-name="439" class="block"
      d="M1710.32,1839.9L1539.98,1782.02L1466.83,2006.31L2037.51,2193.31L2150.14,1848.23L1749.94,1717.79L1710.32,1839.9Z">
    </path>
    <path data-component="svg__section" data-section-id="s_150" data-section-name="127"
      class="block is-available is-filtered minimum"
      d="M3675.52,3106.58L3675.52,3106.58C3344.83,3283.67,3014.15,3460.76,3014.15,3460.76C3017.41,3467.32,3020.7,3473.89,3024.06,3480.48C3024.06,3480.48,3089.76,3602.9,3155.46,3725.32L3155.46,3725.32L3815.31,3371.94L3675.52,3106.58Z">
    </path>
    <path data-component="svg__section" data-section-id="s_151" data-section-name="215"
      class="block is-available is-filtered minimum"
      d="M6394.05,5294.63L6394.05,5294.63C6380.28,5312.81,6366.5,5330.99,6366.5,5330.99C6363.06,5336.3,6328.96,5388.28,6264.43,5458.54C6239.81,5485.35,6210.77,5514.8,6177.35,5545.31C6177.35,5545.31,6525.2,5936.3,6525.2,5936.3C6543.15,5922.3,6552.98,5914.05,6552.98,5914.05C6552.98,5914.05,6558.14,5909.2,6558.14,5909.2C6602.21,5867.87,6640.21,5828.48,6671.99,5793.35C6728.64,5730.74,6765.56,5681.59,6781.84,5658.92C6787.17,5651.51,6790.37,5646.8,6791.34,5645.35C6791.34,5645.35,6803.06,5629.81,6814.77,5614.27L6814.77,5614.27L6394.05,5294.63Z">
    </path>
    <path data-component="svg__section" data-section-id="s_152" data-section-name="106" class="block"
      d="M7416.09,2554.66L7118.89,2863.46L7480.73,2863.46L7480.73,2612.84L7416.09,2554.66Z"></path>
    <path data-component="svg__section" data-section-id="s_154" data-section-name="419"
      class="block is-available is-filtered minimum"
      d="M6421.72,6348.35C6412.34,6354.33,6402.82,6360.3,6393.18,6366.24C6318.13,6412.53,6235.29,6457.58,6145.03,6498.41C6145.03,6498.41,6423.64,7083.9,6423.64,7083.9C6442.86,7075.34,6462.38,7066.41,6482.12,7057.15C6589.8,7006.59,6703.71,6945.62,6807.27,6875.31C6807.27,6875.31,6814.53,6870.38,6821.79,6865.44L6821.79,6865.44L6789.36,6815.58C6666.81,6659.83,6544.27,6504.09,6421.72,6348.35Z">
    </path>
    <path data-component="svg__section" data-section-id="s_155" data-section-name="323" class="block"
      d="M6809.55,5660.57L6782.28,5696.64L6776.51,5705.05C6775.67,5706.28,6774.82,5707.5,6774.82,5707.5C6774.1,5708.54,6773.32,5709.67,6772.46,5710.87C6771.47,5712.3,6770.38,5713.84,6769.2,5715.49C6767.81,5717.44,6766.3,5719.54,6764.67,5721.79C6762.73,5724.45,6760.64,5727.32,6758.36,5730.37C6755.69,5733.98,6752.78,5737.85,6749.63,5741.99C6745.91,5746.86,6741.87,5752.09,6737.51,5757.64C6732.36,5764.18,6726.75,5771.19,6720.69,5778.6C6713.55,5787.33,6705.78,5796.64,6697.37,5806.45C6688.68,5816.59,6679.3,5827.25,6669.25,5838.39C6669.25,5838.39,6745.52,5898.3,6821.78,5958.22L6821.78,5958.22L6963.23,5777.38L6809.55,5660.57Z">
    </path>
    <path data-component="svg__section" data-section-id="s_156" data-section-name="421"
      class="block is-available is-filtered minimum"
      d="M5788.45,6621.98C5700.33,6643.56,5607.53,6659.91,5510.25,6669.37C5510.25,6669.37,5526.55,7195.22,5526.55,7195.22C5537.15,7194.51,5547.8,7193.73,5558.5,7192.87C5604.79,7189.14,5652.06,7184.02,5700.13,7177.3C5728.62,7173.31,5757.39,7168.77,5786.41,7163.61C5834.13,7155.14,5882.52,7145.03,5931.43,7133.09L5931.43,7133.09C5931.43,7133.09,5859.94,6877.54,5788.45,6621.98Z">
    </path>
    <path data-component="svg__section" data-section-id="s_157" data-section-name="324" class="block"
      d="M6668.64,5839.03C6667.44,5840.37,6666.23,5841.7,6665.02,5843.05C6651.28,5858.14,6636.33,5874.05,6620.16,5890.57C6582.16,5929.39,6537.42,5971.64,6485.86,6014.9C6485.86,6014.9,6623.83,6178.58,6623.83,6178.58C6686.91,6127.53,6749.03,6070.98,6809.32,6008.33C6809.32,6008.33,6810.22,6007.4,6811.11,6006.47L6811.11,6006.47L6821.41,5959.05C6770.49,5919.05,6719.56,5879.04,6668.64,5839.03Z">
    </path>
    <path data-component="svg__section" data-section-id="s_158" data-section-name="216" class="block"
      d="M6176.69,5545.88C6171.27,5550.83,6165.74,5555.78,6160.1,5560.77C6105.7,5608.82,6040.63,5658.82,5964.95,5704.78C5964.95,5704.78,6110.96,5945.96,6110.96,5945.96C6200.83,5894.5,6317.16,5801.64,6358.72,5750.5L6358.72,5750.5C6358.72,5750.5,6267.71,5648.19,6176.69,5545.88Z">
    </path>
    <path data-component="svg__section" data-section-id="s_159" data-section-name="110"
      class="block is-available is-filtered minimum"
      d="M6680.29,3526.28L6539.62,3866.21C6853.92,3993.49,7168.22,4120.77,7168.22,4120.77C7171.82,4111.95,7175.31,4103.05,7178.68,4094.08C7178.68,4094.08,7243.28,3937.26,7307.88,3780.44L7307.88,3780.44L6680.29,3526.28Z">
    </path>
    <path data-component="svg__section" data-section-id="s_92" data-section-name="437" class="block"
      d="M1297.18,2526.68L1399.49,3053.05L1993.22,2934.33L1921.57,2549.03L1297.18,2526.68Z"></path>
    <path data-component="svg__section" data-section-id="s_91" data-section-name="121"
      class="block is-available is-filtered minimum"
      d="M4577.18,4663.25L4188.14,4950.01L4375.16,5194.55L4823.77,4863.89L4746.53,4760.38L4683.74,4806.67L4577.18,4663.25Z">
    </path>
    <path data-component="svg__section" data-section-id="s_94" data-section-name="126"
      class="block is-available is-filtered minimum"
      d="M3815.72,3372.74L3155.87,3726.11L3324.69,4016.06L3340.89,4038.73L3984.93,3693.95L3815.72,3372.74Z"></path>
    <path data-component="svg__section" data-section-id="s_93" data-section-name="308" class="block"
      d="M8057.3,2868.76L8057.3,3074.22L8274.19,3074.22L8274.19,2868.76L8057.3,2868.76Z"></path>
    <path data-component="svg__section" data-section-id="s_90" data-section-name="209"
      class="block is-available is-filtered minimum"
      d="M7461.0,3509.31L7347.99,3795.13L7837.85,3992.95L7951.77,3707.9L7461.0,3509.31Z"></path>
    <path data-component="svg__section" data-section-id="s_99" data-section-name="123"
      class="block is-available is-filtered middle"
      d="M4173.39,4119.83L3776.91,4412.28L3964.86,4658.06L4358.0,4368.29L4173.39,4119.83Z"></path>
    <path data-component="svg__section" data-section-id="s_96" data-section-name="210"
      class="block is-available is-filtered minimum"
      d="M7347.68,3795.97L7212.4,4138.11C7456.66,4237.05,7700.92,4335.98,7700.92,4335.98C7703.6,4329.25,7705.13,4325.21,7705.49,4324.25C7705.49,4324.25,7771.52,4159.02,7837.55,3993.79L7837.55,3993.79L7347.68,3795.97Z">
    </path>
    <path data-component="svg__section" data-section-id="s_95" data-section-name="423"
      class="block is-available is-filtered minimum"
      d="M4844.31,6622.38C4768.69,6868.32,4693.06,7114.26,4693.06,7114.26C4781.7,7138.44,4920.29,7169.79,5092.63,7187.39C5092.63,7187.39,5149.01,6673.05,5149.01,6673.05C5088.95,6667.78,5016.69,6658.53,4935.84,6642.59L4935.84,6642.59C4906.41,6636.79,4875.84,6630.09,4844.31,6622.38Z">
    </path>
    <path data-component="svg__section" data-section-id="s_98" data-section-name="211"
      class="block is-available is-filtered minimum"
      d="M7212.06,4138.95L7212.06,4138.95C7206.65,4152.63,7201.25,4166.31,7201.25,4166.31C7170.32,4247.67,7114.59,4335.63,7080.92,4385.28C7065.75,4407.67,7055.03,4422.28,7053.05,4424.98C7053.05,4424.98,7023.75,4463.65,6994.45,4502.31L6994.45,4502.31L7413.26,4820.71C7440.47,4784.63,7467.67,4748.56,7467.67,4748.56C7517.8,4681.2,7559.81,4614.52,7593.89,4554.66C7608.23,4529.46,7621.16,4505.48,7632.71,4483.17C7652.2,4445.49,7667.72,4412.57,7679.34,4386.64C7689.2,4364.62,7696.27,4347.54,7700.58,4336.81L7700.58,4336.81C7700.58,4336.81,7456.32,4237.88,7212.06,4138.95Z">
    </path>
    <path data-component="svg__section" data-section-id="s_97" data-section-name="309" class="block"
      d="M8057.3,3075.11L8057.3,3283.62L8274.19,3283.62L8274.19,3075.11L8057.3,3075.11Z"></path>
    <path data-component="svg__section" data-section-id="s_161" data-section-name="418"
      class="block is-available is-filtered minimum"
      d="M6745.67,6098.93C6735.57,6108.26,6725.0,6117.84,6713.95,6127.66C6638.36,6194.84,6540.7,6272.45,6422.52,6347.85C6422.52,6347.85,6603.11,6577.34,6783.83,6807.03C6799.63,6794.69,6828.54,6771.26,6866.35,6738.97C6905.21,6705.78,6953.41,6662.9,7006.15,6612.21C7037.41,6582.17,7070.25,6549.37,7103.69,6514.21C7114.72,6502.61,7125.82,6490.74,7136.95,6478.65L7136.95,6478.65C7136.95,6478.65,6941.31,6288.79,6745.67,6098.93Z">
    </path>
    <path data-component="svg__section" data-section-id="s_163" data-section-name="107" class="block"
      d="M7118.02,2864.33L6931.35,3058.29L6874.58,3136.13L7480.72,3136.13L7480.72,2864.33L7118.02,2864.33Z"></path>
    <path data-component="svg__section" data-section-id="s_165" data-section-name="319" class="block"
      d="M7336.52,4963.43L7207.12,5134.62L7360.96,5251.62L7490.43,5080.47L7336.52,4963.43Z"></path>
    <path data-component="svg__section" data-section-id="s_166" data-section-name="414" class="block"
      d="M7656.61,4934.33L7405.02,5268.28L7822.26,5585.01L8073.06,5253.05L7656.61,4934.33Z"></path>
    <path data-component="svg__section" data-section-id="s_81" data-section-name="317" class="block"
      d="M7578.54,4642.17C7573.49,4649.31,7568.17,4656.74,7562.53,4664.44C7562.53,4664.44,7515.31,4726.91,7468.09,4789.38L7468.09,4789.38L7622.06,4906.46L7748.86,4738.84C7692.09,4706.61,7635.31,4674.39,7578.54,4642.17Z">
    </path>
    <path data-component="svg__section" data-section-id="s_80" data-section-name="436" class="block"
      d="M1993.41,2935.18L1399.69,3053.9L1491.81,3527.83L2066.42,3317.74L2063.6,3312.63L1993.41,2935.18Z"></path>
    <path data-component="svg__section" data-section-id="s_83" data-section-name="438" class="block"
      d="M1466.54,2007.16L1297.27,2525.78L1921.7,2548.13L2037.23,2194.17L1466.54,2007.16Z"></path>
    <path data-component="svg__section" data-section-id="s_82" data-section-name="114"
      class="block is-available is-filtered middle"
      d="M6077.33,4655.01L5952.86,4817.97L5892.62,4772.14L5825.25,4860.53L6250.1,5183.6L6440.13,4930.87L6077.33,4655.01Z">
    </path>
    <path data-component="svg__section" data-section-id="s_89" data-section-name="307" class="block"
      d="M8057.3,2656.49L8057.3,2867.86L8274.19,2867.86L8274.19,2656.49L8057.3,2656.49Z"></path>
    <path data-component="svg__section" data-section-id="s_85" data-section-name="316" class="block"
      d="M7681.01,4444.41L7663.49,4487.76C7663.34,4488.86,7663.19,4489.97,7663.19,4489.97C7663.19,4489.97,7662.7,4493.56,7658.78,4504.02C7655.86,4511.81,7651.3,4522.44,7644.27,4536.25C7640.0,4544.65,7634.84,4554.2,7628.59,4564.96C7616.48,4585.82,7600.38,4611.18,7579.05,4641.46C7579.05,4641.46,7664.23,4689.8,7749.4,4738.15L7749.4,4738.15C7759.29,4725.08,7769.17,4712.02,7769.17,4712.02C7769.17,4712.02,7770.79,4709.42,7773.65,4704.52C7780.73,4692.36,7796.12,4664.85,7815.84,4622.96C7826.87,4599.54,7839.26,4571.61,7852.35,4539.25C7852.35,4539.25,7856.73,4528.29,7861.1,4517.33L7861.1,4517.33L7681.01,4444.41Z">
    </path>
    <path data-component="svg__section" data-section-id="s_84" data-section-name="233" class="block"
      d="M2491.65,1974.04L2383.44,2316.12L2859.25,2453.38L2963.73,2116.55L2491.65,1974.04Z"></path>
    <path data-component="svg__section" data-section-id="s_87" data-section-name="124"
      class="block is-available is-filtered minimum"
      d="M4080.78,3868.09L3495.26,4254.76L3656.71,4480.69L3666.04,4492.92L4234.26,4073.8L4080.78,3868.09Z"></path>
    <path data-component="svg__section" data-section-id="s_86" data-section-name="435" class="block"
      d="M2066.82,3318.53L1491.95,3528.73L1495.27,3545.82L1681.95,3861.17L2208.4,3574.22L2066.82,3318.53Z"></path>
    <path data-component="svg__section" data-section-id="s_173" data-section-name="417" class="block"
      d="M6928.12,5901.3L6928.12,5901.3C6914.25,5919.72,6900.37,5938.14,6900.37,5938.14C6897.5,5941.74,6844.82,6007.3,6746.33,6098.35C6746.33,6098.35,7137.56,6478.02,7137.56,6478.02C7206.44,6403.04,7276.36,6318.76,7338.83,6228.45C7338.83,6228.45,7341.41,6223.42,7344.0,6218.39L7344.0,6218.39L7321.85,6201.08L6928.12,5901.3Z">
    </path>
    <path data-component="svg__section" data-section-id="s_38" data-section-name="429" class="block"
      d="M3243.23,5237.24L2833.35,5539.46L3069.5,5853.21L3479.38,5551.09L3243.23,5237.24Z"></path>
    <path data-component="svg__section" data-section-id="s_176" data-section-name="415" class="block"
      d="M7404.5,5268.98L7159.18,5594.6L7574.4,5913.39L7822.21,5585.01L7404.5,5268.98Z"></path>
    <path data-component="svg__section" data-section-id="s_37" data-section-name="431" class="block"
      d="M2812.31,4664.55L2372.79,4927.58L2581.71,5205.14L2991.69,4902.95L2812.31,4664.55Z"></path>
    <path data-component="svg__section" data-section-id="s_39" data-section-name="228"
      class="block is-available is-filtered minimum"
      d="M3156.91,3746.73L2700.27,4004.53L2874.62,4303.02L3327.91,4041.42L3310.63,4016.8L3156.91,3746.73Z"></path>
    <path data-component="svg__section" data-section-id="s_217" data-section-name="235" class="block"
      d="M3022.08,1276.76L2769.61,1498.52L3109.53,1878.54L3360.21,1662.29L3022.08,1276.76Z"></path>
    <path data-component="svg__section" data-section-id="s_34" data-section-name="432" class="block"
      d="M2580.6,4246.38L2073.59,4522.7L2328.2,4952.79L2811.54,4663.46L2580.6,4246.38Z"></path>
    <path data-component="svg__section" data-section-id="s_33" data-section-name="226"
      class="block is-available is-filtered minimum"
      d="M3488.89,4270.82L3022.61,4554.25L3224.86,4820.62L3653.4,4503.29L3634.86,4478.78L3488.89,4270.82Z"></path>
    <path data-component="svg__section" data-section-id="s_36" data-section-name="344" class="block"
      d="M2912.24,4397.76L2743.78,4490.75L2836.05,4657.8L2866.58,4698.33L3020.69,4584.75L2999.97,4557.28L2912.24,4397.76Z">
    </path>
    <path data-component="svg__section" data-section-id="s_35" data-section-name="227"
      class="block is-available is-filtered minimum"
      d="M3328.43,4042.17L2875.07,4303.81L3017.14,4547.03L3022.08,4553.55L3488.4,4270.09L3328.43,4042.17Z"></path>
    <path data-component="svg__section" data-section-id="s_30" data-section-name="430" class="block"
      d="M2992.21,4903.63L2582.23,5205.83L2832.8,5538.74L3242.68,5236.52L2992.21,4903.63Z"></path>
    <path data-component="svg__section" data-section-id="s_32" data-section-name="345" class="block"
      d="M2817.83,4226.05L2648.3,4317.88L2743.38,4490.0L2911.84,4397.0L2817.83,4226.05Z"></path>
    <path data-component="svg__section" data-section-id="s_31" data-section-name="343" class="block"
      d="M3021.21,4585.45L2867.1,4699.03L3005.51,4882.79L3159.76,4769.1L3021.21,4585.45Z"></path>
    <path data-component="svg__section" data-section-id="s_27" data-section-name="335"
      class="block is-available is-filtered minimum"
      d="M4097.95,5964.95C4054.04,6013.16,4010.12,6061.36,3966.21,6109.56L3966.21,6109.56C3974.31,6128.67,3982.42,6147.77,3982.42,6147.77C3982.43,6147.77,4037.36,6205.04,4138.32,6274.96C4146.48,6280.61,4154.92,6286.37,4163.63,6292.21C4163.63,6292.21,4283.27,6112.34,4283.27,6112.34L4283.27,6112.34C4220.82,6069.09,4158.7,6020.21,4097.95,5964.95Z">
    </path>
    <path data-component="svg__section" data-section-id="s_26" data-section-name="334"
      class="block is-available is-filtered middle"
      d="M4284.0,6112.85C4224.19,6202.78,4164.37,6292.71,4164.37,6292.71C4219.77,6329.86,4286.28,6370.61,4362.83,6410.9C4362.83,6410.9,4460.44,6220.52,4460.44,6220.52L4460.44,6220.52C4401.92,6189.21,4342.81,6153.53,4284.0,6112.85Z">
    </path>
    <path data-component="svg__section" data-section-id="s_100" data-section-name="422"
      class="block is-available is-filtered minimum"
      d="M5509.36,6669.47C5452.73,6674.95,5394.59,6678.1,5334.96,6678.59C5334.94,6678.59,5332.89,6678.69,5328.92,6678.87C5322.17,6679.17,5308.88,6679.62,5289.87,6679.62C5257.97,6679.62,5210.11,6678.36,5149.93,6673.12C5149.93,6673.12,5093.56,7187.46,5093.56,7187.46C5174.56,7195.7,5263.01,7200.91,5357.22,7200.91C5411.55,7200.91,5467.8,7199.18,5525.65,7195.3L5525.65,7195.3C5525.65,7195.3,5517.51,6932.39,5509.36,6669.47Z">
    </path>
    <path data-component="svg__section" data-section-id="s_221" data-section-name="101 - Video Viewing Only seats."
      class="block is-available is-filtered middle"
      d="M6889.37,1232.89L7023.99,1079.64L6783.21,868.128L6648.59,1021.37L6889.37,1232.89Z"></path>
    <path data-component="svg__section" data-section-id="s_29" data-section-name="342" class="block"
      d="M3160.34,4769.83L3006.09,4883.53L3147.44,5071.2L3301.84,4957.37L3160.34,4769.83Z"></path>
    <path data-component="svg__section" data-section-id="s_101" data-section-name="318" class="block"
      d="M7467.54,4790.11L7337.07,4962.71L7490.99,5079.74L7621.52,4907.19L7467.54,4790.11Z"></path>
    <path data-component="svg__section" data-section-id="s_189" data-section-name="416" class="block"
      d="M7158.62,5595.35L6928.65,5900.58L7344.01,6218.32L7574.36,5913.35L7158.62,5595.35Z"></path>
    <path data-component="svg__section" data-section-id="s_222" data-section-name="102 - Video Viewing Only seats."
      class="block is-available is-filtered minimum"
      d="M7084.15,1404.04L7084.15,1404.04C7017.44,1345.44,6950.72,1286.83,6889.41,1232.98C6939.91,1175.5,6981.98,1127.6,7024.06,1079.7L7024.06,1079.7L7340.67,1357.82L7083.43,1650.65C7042.81,1614.96,7002.19,1579.28,6961.58,1543.61L6961.58,1543.61C6996.83,1503.48,7040.49,1453.76,7084.15,1404.04Z">
    </path>
    <path data-component="svg__section" data-section-id="s_28" data-section-name="338"
      class="block is-available is-filtered minimum"
      d="M3695.79,5479.54L3540.96,5593.69L3671.09,5766.46L3826.05,5652.21L3695.79,5479.54Z"></path>
    <path data-component="svg__section" data-section-id="s_102" data-section-name="122"
      class="block is-available is-filtered minimum"
      d="M4358.57,4368.98L3965.45,4658.75L4187.63,4949.29L4576.68,4662.52L4358.57,4368.98Z"></path>
    <path data-component="svg__section" data-section-id="s_223" data-section-name="103 - Video Viewing Only seats."
      class="block is-available is-filtered minimum"
      d="M7356.78,1890.77L7614.01,1597.95L7340.67,1357.82L7083.43,1650.65L7356.78,1890.77Z"></path>
    <path data-component="svg__section" data-section-id="s_103" data-section-name="212"
      class="block is-available is-filtered middle"
      d="M6993.89,4503.0L6806.85,4749.83L7226.21,5068.69L7412.71,4821.4L6993.89,4503.0Z"></path>
    <path data-component="svg__section" data-section-id="s_224" data-section-name="104 - Video Viewing Only seats."
      class="block is-available is-filtered minimum"
      d="M7630.12,2130.89L7887.36,1838.07L7614.01,1597.95L7356.77,1890.77L7630.12,2130.89Z"></path>
    <path data-component="svg__section" data-section-id="s_104" data-section-name="310" class="block"
      d="M8057.3,3284.51L8057.3,3512.6L8055.55,3516.93L8232.16,3588.44L8274.19,3483.23L8274.19,3284.51L8057.3,3284.51Z">
    </path>
    <path data-component="svg__section" data-section-id="s_225" data-section-name="201 - Video Viewing Only seats."
      class="block" d="M6795.95,831.652L7053.19,538.828L6898.85,403.247L6641.62,696.071L6795.95,831.652Z"></path>
    <path data-component="svg__section" data-section-id="s_105" data-section-name="412" class="block"
      d="M7988.45,4316.21L7827.09,4708.03L7809.27,4731.69L8284.98,4972.47L8514.04,4652.98L8556.76,4546.36L7988.45,4316.21Z">
    </path>
    <path data-component="svg__section" data-section-id="s_226" data-section-name="202 - Video Viewing Only seats."
      class="block is-available is-filtered minimum"
      d="M7123.4,1119.3L7380.64,826.476L7053.19,538.828L6795.96,831.653L7123.4,1119.3Z"></path>
    <path data-component="svg__section" data-section-id="s_106" data-section-name="311" class="block"
      d="M8055.2,3517.73L7979.73,3704.63L8157.03,3776.45L8231.82,3589.24L8055.2,3517.73Z"></path>
    <path data-component="svg__section" data-section-id="s_227" data-section-name="203 - Video Viewing Only seats."
      class="block is-available is-filtered minimum"
      d="M7440.03,1397.44L7697.26,1104.62L7581.41,1002.85L7494.6,1039.55L7448.17,999.577L7477.46,911.533L7380.64,826.477L7123.4,1119.3L7440.03,1397.44Z">
    </path>
    <path data-component="svg__section" data-section-id="s_107" data-section-name="112"
      class="block is-available is-filtered minimum"
      d="M6427.7,4072.25C6418.83,4083.7,6409.21,4095.66,6398.73,4108.13C6398.73,4108.13,6394.27,4113.99,6389.81,4119.85L6389.81,4119.85L6450.73,4166.16L6299.47,4364.2L6660.06,4638.39L6846.42,4390.52C6706.85,4284.43,6567.27,4178.34,6427.7,4072.25Z">
    </path>
    <path data-component="svg__section" data-section-id="s_228" data-section-name="204 - Video Viewing Only seats."
      class="block is-available is-filtered minimum"
      d="M7756.65,1675.59L8013.89,1382.76L7697.26,1104.62L7440.03,1397.44L7756.65,1675.59Z"></path>
    <path data-component="svg__section" data-section-id="s_108" data-section-name="410" class="block"
      d="M8261.15,3653.99L8104.12,4035.32L8669.8,4264.34L8823.17,3881.59L8261.15,3653.99Z"></path>
    <path data-component="svg__section" data-section-id="s_229" data-section-name="205 - Video Viewing Only seats."
      class="block" d="M7910.99,1811.17L8168.23,1518.34L8013.89,1382.76L7756.65,1675.59L7910.99,1811.17Z"></path>
    <path data-component="svg__section" data-section-id="s_109" data-section-name="207" class="block"
      d="M7499.87,2889.17L7499.88,3229.99L8031.52,3229.99L8031.54,2889.17L7499.87,2889.17Z"></path>
    <path data-component="svg__section" data-section-id="s_25" data-section-name="332"
      class="block is-available is-filtered minimum"
      d="M4647.08,6307.43C4610.04,6407.54,4573.01,6507.65,4573.01,6507.65C4644.62,6536.08,4721.76,6562.2,4803.92,6584.12C4803.92,6584.12,4862.01,6379.25,4862.01,6379.25L4862.01,6379.25C4794.46,6360.97,4722.12,6337.51,4647.08,6307.43Z">
    </path>
    <path data-component="svg__section" data-section-id="s_24" data-section-name="333"
      class="block is-available is-filtered middle"
      d="M4461.22,6220.95C4412.42,6316.14,4363.61,6411.33,4363.61,6411.33C4426.54,6444.41,4496.24,6477.15,4572.15,6507.32C4572.15,6507.32,4646.22,6307.11,4646.22,6307.11L4646.22,6307.11C4585.94,6282.91,4523.92,6254.44,4461.22,6220.95Z">
    </path>
    <path data-component="svg__section" data-section-id="s_190" data-section-name="306" class="block"
      d="M8274.19,2530.04L8057.3,2531.7L8057.3,2655.6L8274.19,2655.6L8274.19,2530.04Z"></path>
    <path data-component="svg__section" data-section-id="s_230" data-section-name="236 - Video Viewing Only seats."
      class="block"
      d="M3535.14,1511.5L3360.26,1662.34L3022.08,1276.76L3076.97,1248.4L3252.63,1377.96L3311.0,1331.34L3245.93,1161.09L3312.94,1126.46L3535.14,1511.5Z">
    </path>
    <path data-component="svg__section" data-section-id="s_110" data-section-name="128"
      class="block is-available is-filtered minimum"
      d="M3588.23,2908.86L2865.09,3070.0C2865.52,3072.44,2865.96,3074.87,2866.33,3077.07C2898.02,3190.06,2944.84,3321.0,3013.75,3459.94C3013.75,3459.94,3344.42,3282.85,3675.1,3105.77L3675.1,3105.77L3663.16,3083.12C3662.3,3082.21,3661.44,3081.31,3661.44,3081.31C3661.44,3081.31,3659.69,3079.47,3655.22,3071.96C3644.57,3054.04,3625.01,3012.99,3602.36,2928.6C3602.36,2928.6,3601.86,2926.74,3601.35,2924.87L3601.35,2924.87L3588.23,2908.86Z">
    </path>
    <path data-component="svg__section" data-section-id="s_231" data-section-name="441 - Video Viewing Only seats."
      class="block"
      d="M2393.31,1380.02L2254.34,1529.05C2133.31,1463.22,2012.27,1397.39,1891.23,1331.56C1891.23,1331.56,2100.57,1107.05,2100.57,1107.05L2100.57,1107.05C2198.15,1198.04,2295.73,1289.03,2393.31,1380.02Z">
    </path>
    <path data-component="svg__section" data-section-id="s_59" data-section-name="340" class="block"
      d="M3439.6,5139.97L3285.05,5253.91L3411.05,5421.21L3565.76,5307.2L3439.6,5139.97Z"></path>
    <path data-component="svg__section" data-section-id="s_111" data-section-name="213"
      class="block is-available is-filtered minimum"
      d="M6806.34,4750.58L6586.44,5040.78L7006.48,5360.13L7225.71,5069.45L6806.34,4750.58Z"></path>
    <path data-component="svg__section" data-section-id="s_232" data-section-name="442 - Video Viewing Only seats."
      class="block" d="M2649.68,1105.08L2393.31,1380.02L2100.57,1107.05L2453.22,921.893L2649.68,1105.08Z"></path>
    <path data-component="svg__section" data-section-id="s_112" data-section-name="411" class="block"
      d="M8103.79,4036.13L7988.81,4315.35L8557.13,4545.51L8669.47,4265.16L8103.79,4036.13Z"></path>
    <path data-component="svg__section" data-section-id="s_113" data-section-name="327"
      class="block is-available is-filtered minimum"
      d="M6080.12,6274.4C6006.71,6308.69,5927.47,6339.67,5842.35,6365.44C5842.35,6365.44,5903.27,6556.84,5903.27,6556.84C5929.2,6548.98,5955.63,6540.46,5982.45,6531.23C6042.29,6510.64,6104.17,6486.51,6167.18,6458.26L6167.18,6458.26C6167.18,6458.26,6123.65,6366.33,6080.12,6274.4Z">
    </path>
    <path data-component="svg__section" data-section-id="s_115" data-section-name="325"
      class="block is-available is-filtered middle"
      d="M6485.19,6015.49C6439.31,6053.95,6388.07,6093.21,6331.43,6131.59C6319.18,6139.88,6306.67,6148.14,6293.92,6156.34C6293.92,6156.34,6406.95,6331.8,6406.95,6331.8C6479.39,6287.38,6551.87,6236.78,6623.15,6179.16L6623.15,6179.16C6623.15,6179.16,6554.17,6097.32,6485.19,6015.49Z">
    </path>
    <path data-component="svg__section" data-section-id="s_116" data-section-name="208" class="block"
      d="M7499.89,3230.84L7499.9,3410.93L7461.33,3508.48L7952.1,3707.07L8031.52,3508.32L8031.53,3230.84L7499.89,3230.84Z">
    </path>
    <path data-component="svg__section" data-section-id="s_118" data-section-name="409" class="block"
      d="M8337.08,3469.52L8261.46,3653.15L8823.48,3880.75L8939.63,3590.89L8337.08,3469.52Z"></path>
    <path data-component="svg__section" data-section-id="s_119" data-section-name="129" class="block"
      d="M2802.51,2700.4L2864.93,3069.11L3587.59,2908.08L3444.16,2733.11L2802.51,2700.4Z"></path>
    <path data-component="svg__section" data-section-id="s_50" data-section-name="425"
      class="block is-available is-filtered minimum"
      d="M4197.86,6337.24C4023.78,6557.1,3849.7,6776.96,3849.7,6776.96C3850.2,6777.4,3819.12,6819.99,3819.12,6819.99C3819.12,6819.99,3865.1,6853.96,3926.48,6898.01C3983.83,6939.15,4074.91,6991.97,4169.7,7042.91C4169.7,7042.91,4452.45,6483.28,4452.45,6483.28L4452.45,6483.28C4368.49,6443.22,4282.9,6395.09,4197.86,6337.24Z">
    </path>
    <path data-component="svg__section" data-section-id="s_56" data-section-name="120"
      class="block is-available is-filtered middle"
      d="M4824.32,4864.55L4763.62,4910.52C4569.97,5053.24,4376.32,5195.95,4376.32,5195.95C4392.62,5216.13,4429.04,5259.01,4483.49,5311.37C4514.11,5340.8,4550.34,5373.15,4591.92,5406.22C4591.92,5406.22,4942.28,5005.67,4942.28,5005.67C4931.69,4996.32,4921.25,4986.39,4910.99,4975.84C4901.95,4966.55,4893.07,4956.77,4884.37,4946.48C4879.21,4940.39,4874.12,4934.11,4869.1,4927.65C4857.19,4912.31,4845.69,4895.95,4834.69,4878.46L4834.69,4878.46C4834.69,4878.46,4829.51,4871.51,4824.32,4864.55Z">
    </path>
    <path data-component="svg__section" data-section-id="s_55" data-section-name="336"
      class="block is-available is-filtered minimum"
      d="M3959.24,5824.17C3881.37,5881.94,3803.49,5939.7,3803.49,5939.7C3832.57,5973.71,3905.93,6049.78,3965.68,6108.85C3965.68,6108.85,4097.29,5964.38,4097.29,5964.38L4097.29,5964.38C4050.28,5921.58,4004.1,5874.95,3959.24,5824.17Z">
    </path>
    <path data-component="svg__section" data-section-id="s_58" data-section-name="117"
      class="block is-available is-filtered middle"
      d="M5524.56,5121.4C5521.42,5122.68,5518.26,5123.93,5515.07,5125.16C5499.21,5131.25,5482.79,5136.61,5465.81,5141.03C5455.77,5143.65,5445.51,5145.96,5435.07,5147.89C5410.3,5152.49,5384.45,5155.04,5357.59,5155.08C5357.59,5155.08,5343.44,5154.7,5329.28,5154.33L5329.28,5154.33L5329.28,5693.21C5329.72,5761.68,5330.16,5830.14,5330.16,5830.14C5348.59,5830.02,5423.56,5828.18,5529.15,5807.56C5546.06,5804.25,5563.78,5800.46,5582.98,5795.93C5582.98,5795.93,5558.53,5666.69,5558.53,5666.69C5606.23,5654.31,5658.15,5637.93,5712.31,5616.24C5713.86,5615.62,5715.4,5615.0,5716.95,5614.37L5716.95,5614.37C5716.95,5614.37,5620.75,5367.88,5524.56,5121.4Z">
    </path>
    <path data-component="svg__section" data-section-id="s_57" data-section-name="232" class="block"
      d="M2383.18,2316.97L2234.51,2786.94L2751.86,2799.66L2859.0,2454.24L2383.18,2316.97Z"></path>
    <path data-component="svg__section" data-section-id="s_52" data-section-name="230" class="block"
      d="M2825.71,3091.81L2825.71,3091.81C2573.08,3162.46,2320.46,3233.12,2320.46,3233.12C2381.47,3441.49,2464.55,3603.8,2515.37,3692.1C2524.18,3707.41,2532.05,3720.54,2538.68,3731.31C2538.68,3731.31,2769.85,3602.12,3001.02,3472.93L3001.02,3472.93C2998.57,3468.61,2996.11,3464.3,2996.11,3464.3C2920.21,3351.35,2874.38,3241.53,2852.21,3180.81C2841.93,3152.62,2836.84,3135.31,2836.21,3133.14L2836.21,3133.14C2836.21,3133.14,2830.96,3112.48,2825.71,3091.81Z">
    </path>
    <path data-component="svg__section" data-section-id="s_51" data-section-name="339" class="block"
      d="M3566.31,5307.92L3411.6,5421.94L3540.45,5593.01L3695.28,5478.86L3566.31,5307.92Z"></path>
    <path data-component="svg__section" data-section-id="s_54" data-section-name="433" class="block"
      d="M2415.84,3948.88L1900.23,4229.89L2073.1,4521.91L2580.13,4245.58L2415.84,3948.88Z"></path>
    <path data-component="svg__section" data-section-id="s_53" data-section-name="426" class="block"
      d="M3910.45,6096.96C3712.84,6264.15,3515.22,6431.34,3515.22,6431.34C3525.98,6443.82,3537.32,6456.81,3549.18,6470.23C3573.66,6497.94,3600.41,6527.51,3629.13,6558.27C3693.76,6627.53,3768.36,6702.79,3849.44,6776.38C3849.44,6776.38,4197.51,6336.76,4197.51,6336.76L4197.51,6336.76C4100.03,6270.4,4003.26,6191.27,3910.45,6096.96Z">
    </path>
    <path data-component="svg__section" data-section-id="s_120" data-section-name="109"
      class="block is-available is-filtered middle"
      d="M6798.54,3240.6L6680.67,3525.46L7308.26,3779.63L7425.68,3494.58L6798.54,3240.6Z"></path>
    <path data-component="svg__section" data-section-id="s_49" data-section-name="337" class="block"
      d="M3826.59,5652.96L3671.62,5767.19C3725.43,5838.63,3779.24,5910.07,3779.24,5910.07C3779.24,5910.07,3786.78,5919.7,3800.26,5935.87C3801.1,5936.86,3801.97,5937.91,3802.9,5939.0C3802.9,5939.0,3958.64,5823.48,3958.64,5823.48C3949.6,5813.24,3940.61,5802.83,3931.69,5792.25L3931.69,5792.25C3931.69,5792.25,3879.14,5722.6,3826.59,5652.96Z">
    </path>
    <path data-component="svg__section" data-section-id="s_121" data-section-name="206" class="block"
      d="M8031.56,2531.56L7636.58,2531.58L7499.87,2673.64L7499.87,2888.27L8031.54,2888.27L8031.56,2531.56Z"></path>
    <path data-component="svg__section" data-section-id="s_48" data-section-name="223"
      class="block is-available is-filtered minimum"
      d="M4061.88,5043.47L3634.07,5359.59L3819.98,5604.44L4247.66,5289.11L4061.88,5043.47Z"></path>
    <path data-component="svg__section" data-section-id="s_122" data-section-name="326" class="block"
      d="M6293.15,6156.81C6231.67,6196.28,6164.31,6234.39,6091.05,6269.23C6087.68,6270.83,6084.29,6272.44,6080.89,6274.02C6080.89,6274.02,6167.95,6457.9,6167.95,6457.9C6186.26,6449.68,6204.67,6441.11,6223.15,6432.18C6283.62,6402.94,6344.88,6369.8,6406.17,6332.25L6406.17,6332.25C6406.17,6332.25,6349.66,6244.53,6293.15,6156.81Z">
    </path>
    <path data-component="svg__section" data-section-id="s_124" data-section-name="407" class="block"
      d="M8337.25,2804.48L8337.25,3113.16L8948.37,3113.16L8948.37,2804.48L8337.25,2804.48Z"></path>
    <path data-component="svg__section" data-section-id="s_125" data-section-name="108" class="block"
      d="M6873.92,3137.06L6798.97,3239.83L7426.0,3493.76L7480.71,3360.95L7480.71,3137.06L6873.92,3137.06Z"></path>
    <path data-component="svg__section" data-section-id="s_126" data-section-name="406" class="block"
      d="M8337.25,2447.72L8337.25,2803.58L8948.37,2803.58L8948.36,2447.72L8337.25,2447.72Z"></path>
    <path data-component="svg__section" data-section-id="s_128" data-section-name="221"
      class="block is-available is-filtered minimum"
      d="M4471.68,5541.36C4368.9,5657.93,4266.12,5774.5,4266.12,5774.5C4341.52,5856.72,4417.78,5895.69,4447.61,5912.74C4467.06,5923.85,4486.48,5934.46,4505.83,5944.6C4509.41,5946.47,4512.98,5948.34,4516.56,5950.18C4516.56,5950.18,4680.9,5697.41,4680.9,5697.41L4680.9,5697.41C4611.68,5655.37,4541.17,5604.04,4471.68,5541.36Z">
    </path>
    <path data-component="svg__section" data-section-id="s_129" data-section-name="330" class="block"
      d="M5081.16,6425.29C5067.51,6529.63,5053.85,6633.98,5053.85,6633.98C5134.59,6644.68,5218.88,6650.69,5306.42,6650.69C5306.42,6650.69,5316.41,6650.76,5326.4,6650.83L5326.4,6650.83C5326.4,6547.02,5326.4,6443.22,5326.4,6443.22C5321.24,6443.27,5316.07,6443.3,5310.89,6443.31C5310.89,6443.31,5297.87,6443.47,5297.87,6443.47L5297.87,6443.47C5268.4,6443.47,5190.16,6441.62,5081.16,6425.29Z">
    </path>
    <path data-component="svg__section" data-section-id="s_45" data-section-name="331"
      class="block is-available is-filtered minimum"
      d="M4862.88,6379.5C4833.83,6481.94,4804.79,6584.37,4804.79,6584.37C4883.09,6605.22,4965.97,6622.26,5052.98,6633.84C5052.98,6633.84,5080.28,6425.14,5080.28,6425.14C5059.54,6422.02,5037.67,6418.38,5014.84,6414.13L5014.84,6414.13C4967.97,6405.4,4916.96,6394.11,4862.88,6379.5Z">
    </path>
    <path data-component="svg__section" data-section-id="s_44" data-section-name="341" class="block"
      d="M3302.34,4958.1L3147.94,5071.94L3284.48,5253.22L3439.04,5139.29L3302.34,4958.1Z"></path>
    <path data-component="svg__section" data-section-id="s_47" data-section-name="428" class="block"
      d="M3479.89,5551.79L3070.01,5853.9L3319.79,6185.74L3729.6,5883.67L3479.89,5551.79Z"></path>
    <path data-component="svg__section" data-section-id="s_46" data-section-name="225"
      class="block is-available is-filtered minimum"
      d="M3653.92,4504.03L3225.38,4821.35L3408.7,5062.79L3838.46,4748.05L3653.92,4504.03Z"></path>
    <path data-component="svg__section" data-section-id="s_41" data-section-name="427" class="block"
      d="M3730.14,5884.42L3320.33,6186.49L3382.62,6269.25C3385.0,6272.32,3387.39,6275.39,3390.01,6278.61C3390.82,6279.65,3391.2,6280.47,3392.14,6281.68C3393.23,6283.09,3394.43,6284.62,3395.71,6286.27C3397.21,6288.2,3398.84,6290.29,3400.59,6292.53C3402.66,6295.16,3404.89,6298.0,3407.29,6301.04C3410.11,6304.61,3413.17,6308.46,3416.45,6312.57C3420.31,6317.41,3424.47,6322.61,3428.94,6328.14C3434.19,6334.65,3439.87,6341.63,3445.94,6349.04C3465.03,6372.35,3488.08,6399.93,3514.57,6430.64C3514.57,6430.64,3909.75,6096.29,3909.75,6096.29C3865.09,6050.87,3821.34,6001.93,3778.87,5949.19L3778.87,5949.19C3778.87,5949.19,3754.5,5916.81,3730.14,5884.42Z">
    </path>
    <path data-component="svg__section" data-section-id="s_40" data-section-name="229"
      class="block is-available is-filtered minimum"
      d="M3001.49,3473.73L3001.49,3473.73C2770.33,3602.91,2539.17,3732.09,2539.17,3732.09C2551.25,3751.68,2559.1,3763.33,2560.93,3766.01C2560.93,3766.01,2630.37,3884.9,2699.81,4003.79L2699.81,4003.79L3156.46,3745.98L3001.49,3473.73Z">
    </path>
    <path data-component="svg__section" data-section-id="s_43" data-section-name="224"
      class="block is-available is-filtered minimum"
      d="M3839.04,4748.75L3409.27,5063.48L3633.53,5358.85L4061.35,5042.72L3839.04,4748.75Z"></path>
    <path data-component="svg__section" data-section-id="s_42" data-section-name="424"
      class="block is-available is-filtered minimum"
      d="M4453.68,6483.66C4312.29,6763.5,4170.91,7043.34,4170.91,7043.34C4278.86,7101.28,4405.96,7159.81,4540.65,7197.86C4540.65,7197.86,4571.25,7204.55,4601.84,7211.24L4601.84,7211.24C4624.1,7155.32,4646.36,7099.4,4646.36,7099.4C4662.85,7105.0,4645.12,7100.95,4684.19,7111.8C4686.82,7112.53,4689.49,7113.27,4692.21,7114.01C4692.21,7114.01,4843.45,6622.15,4843.45,6622.15L4843.45,6622.15C4724.14,6592.92,4591.08,6549.12,4453.68,6483.66Z">
    </path>
  </g>
  <g class="labels"><text data-component="svg__label" data-label-id="s_130" class="label" transform="" font-size="105">
      <tspan dy="1em" x="5743" y="6421">328</tspan>
    </text><text data-component="svg__label" data-label-id="s_131" class="label" transform="" font-size="178">
      <tspan dy="1em" x="6369" y="4548">113</tspan>
    </text><text data-component="svg__label" data-label-id="s_132" class="label" transform="" font-size="178">
      <tspan dy="1em" x="8643" y="2144">405</tspan>
    </text><text data-component="svg__label" data-label-id="s_133" class="label" transform="" font-size="160">
      <tspan dy="1em" x="5130" y="5901">219</tspan>
    </text><text data-component="svg__label" data-label-id="s_134" class="label" transform="" font-size="105">
      <tspan dy="1em" x="5470" y="6463">329</tspan>
    </text><text data-component="svg__label" data-label-id="s_135" class="label" transform="" font-size="160">
      <tspan dy="1em" x="5519" y="5901">218</tspan>
    </text><text data-component="svg__label" data-label-id="s_136" class="label" transform="rotate(-74,2981,2371) "
      font-size="105">
      <tspan dy="1em" x="2981" y="2371">131</tspan>
    </text><text data-component="svg__label" data-label-id="s_137" class="label" transform="" font-size="178">
      <tspan dy="1em" x="8635" y="1758">404</tspan>
    </text><text data-component="svg__label" data-label-id="s_138" class="label" transform="rotate(4,3078,2497) "
      font-size="178">
      <tspan dy="1em" x="3078" y="2497">130</tspan>
    </text><text data-component="svg__label" data-label-id="s_139" class="label" transform="" font-size="178">
      <tspan dy="1em" x="8657" y="3202">408</tspan>
    </text><text data-component="svg__label" data-label-id="s_70" class="label" transform="" font-size="160">
      <tspan dy="1em" x="5768" y="5228">116</tspan>
    </text><text data-component="svg__label" data-label-id="s_72" class="label" transform="" font-size="178">
      <tspan dy="1em" x="2051" y="3803">434</tspan>
    </text><text data-component="svg__label" data-label-id="s_71" class="label" transform="" font-size="178">
      <tspan dy="1em" x="2508" y="2864">231</tspan>
    </text><text data-component="svg__label" data-label-id="s_78" class="label" transform="" font-size="169">
      <tspan dy="1em" x="3698" y="3864">125</tspan>
    </text><text data-component="svg__label" data-label-id="s_77" class="label" transform="" font-size="178">
      <tspan dy="1em" x="4150" y="5490">222</tspan>
    </text><text data-component="svg__label" data-label-id="s_79" class="label" transform="" font-size="178">
      <tspan dy="1em" x="2788" y="1719">234</tspan>
    </text><text data-component="svg__label" data-label-id="s_74" class="label" transform="" font-size="160">
      <tspan dy="1em" x="5972" y="5031">115</tspan>
    </text><text data-component="svg__label" data-label-id="s_73" class="label" transform="" font-size="105">
      <tspan dy="1em" x="7813" y="4301">315</tspan>
    </text><text data-component="svg__label" data-label-id="s_75" class="label" transform="" font-size="105">
      <tspan dy="1em" x="7956" y="3934">313</tspan>
    </text><text data-component="svg__label" data-label-id="s_140" class="label" transform="" font-size="105">
      <tspan dy="1em" x="6951" y="5559">322</tspan>
    </text><text data-component="svg__label" data-label-id="s_141" class="label" transform="" font-size="178">
      <tspan dy="1em" x="6703" y="5211">214</tspan>
    </text><text data-component="svg__label" data-label-id="s_142" class="label" transform="" font-size="178">
      <tspan dy="1em" x="6801" y="4041">111</tspan>
    </text><text data-component="svg__label" data-label-id="s_143" class="label" transform="" font-size="160">
      <tspan dy="1em" x="4761" y="5798">220</tspan>
    </text><text data-component="svg__label" data-label-id="s_144" class="label" transform="" font-size="178">
      <tspan dy="1em" x="6089" y="6776">420</tspan>
    </text><text data-component="svg__label" data-label-id="s_145" class="label" transform="" font-size="105">
      <tspan dy="1em" x="7217" y="5208">320</tspan>
    </text><text data-component="svg__label" data-label-id="s_147" class="label" transform="" font-size="105">
      <tspan dy="1em" x="7083" y="5384">321</tspan>
    </text><text data-component="svg__label" data-label-id="s_148" class="label" transform="" font-size="160">
      <tspan dy="1em" x="5879" y="5798">217</tspan>
    </text><text data-component="svg__label" data-label-id="s_149" class="label" transform="" font-size="178">
      <tspan dy="1em" x="7983" y="4865">413</tspan>
    </text><text data-component="svg__label" data-label-id="s_67" class="label" transform="" font-size="105">
      <tspan dy="1em" x="8022" y="3757">312</tspan>
    </text><text data-component="svg__label" data-label-id="s_66" class="label" transform="" font-size="160">
      <tspan dy="1em" x="5162" y="5386">118</tspan>
    </text><text data-component="svg__label" data-label-id="s_68" class="label" transform="" font-size="178">
      <tspan dy="1em" x="2005" y="1464">440</tspan>
    </text><text data-component="svg__label" data-label-id="s_63" class="label" transform="" font-size="105">
      <tspan dy="1em" x="7886" y="4108">314</tspan>
    </text><text data-component="svg__label" data-label-id="s_65" class="label" transform="" font-size="160">
      <tspan dy="1em" x="4878" y="5223">119</tspan>
    </text><text data-component="svg__label" data-label-id="s_64" class="label" transform="" font-size="178">
      <tspan dy="1em" x="1823" y="1811">439</tspan>
    </text><text data-component="svg__label" data-label-id="s_150" class="label" transform="" font-size="178">
      <tspan dy="1em" x="3414" y="3317">127</tspan>
    </text><text data-component="svg__label" data-label-id="s_151" class="label" transform="" font-size="178">
      <tspan dy="1em" x="6492" y="5493">215</tspan>
    </text><text data-component="svg__label" data-label-id="s_152" class="label" transform="" font-size="105">
      <tspan dy="1em" x="7377" y="2676">106</tspan>
    </text><text data-component="svg__label" data-label-id="s_154" class="label" transform="" font-size="178">
      <tspan dy="1em" x="6467" y="6620">419</tspan>
    </text><text data-component="svg__label" data-label-id="s_155" class="label" transform="" font-size="105">
      <tspan dy="1em" x="6815" y="5733">323</tspan>
    </text><text data-component="svg__label" data-label-id="s_156" class="label" transform="" font-size="178">
      <tspan dy="1em" x="5692" y="6826">421</tspan>
    </text><text data-component="svg__label" data-label-id="s_157" class="label" transform="" font-size="105">
      <tspan dy="1em" x="6653" y="5935">324</tspan>
    </text><text data-component="svg__label" data-label-id="s_158" class="label" transform="" font-size="160">
      <tspan dy="1em" x="6160" y="5631">216</tspan>
    </text><text data-component="svg__label" data-label-id="s_159" class="label" transform="" font-size="178">
      <tspan dy="1em" x="6924" y="3724">110</tspan>
    </text><text data-component="svg__label" data-label-id="s_92" class="label" transform="" font-size="178">
      <tspan dy="1em" x="1636" y="2667">437</tspan>
    </text><text data-component="svg__label" data-label-id="s_91" class="label" transform="" font-size="160">
      <tspan dy="1em" x="4477" y="4817">121</tspan>
    </text><text data-component="svg__label" data-label-id="s_94" class="label" transform="" font-size="178">
      <tspan dy="1em" x="3573" y="3608">126</tspan>
    </text><text data-component="svg__label" data-label-id="s_93" class="label" transform="" font-size="105">
      <tspan dy="1em" x="8165" y="2903">308</tspan>
    </text><text data-component="svg__label" data-label-id="s_90" class="label" transform="" font-size="178">
      <tspan dy="1em" x="7649" y="3633">209</tspan>
    </text><text data-component="svg__label" data-label-id="s_99" class="label" transform="" font-size="178">
      <tspan dy="1em" x="4068" y="4290">123</tspan>
    </text><text data-component="svg__label" data-label-id="s_96" class="label" transform="" font-size="178">
      <tspan dy="1em" x="7524" y="3949">210</tspan>
    </text><text data-component="svg__label" data-label-id="s_95" class="label" transform="" font-size="178">
      <tspan dy="1em" x="4942" y="6816">423</tspan>
    </text><text data-component="svg__label" data-label-id="s_98" class="label" transform="" font-size="178">
      <tspan dy="1em" x="7351" y="4344">211</tspan>
    </text><text data-component="svg__label" data-label-id="s_97" class="label" transform="" font-size="105">
      <tspan dy="1em" x="8165" y="3111">309</tspan>
    </text><text data-component="svg__label" data-label-id="s_161" class="label" transform="" font-size="178">
      <tspan dy="1em" x="6779" y="6346">418</tspan>
    </text><text data-component="svg__label" data-label-id="s_163" class="label" transform="" font-size="178">
      <tspan dy="1em" x="7242" y="2901">107</tspan>
    </text><text data-component="svg__label" data-label-id="s_165" class="label" transform="" font-size="105">
      <tspan dy="1em" x="7348" y="5034">319</tspan>
    </text><text data-component="svg__label" data-label-id="s_166" class="label" transform="" font-size="178">
      <tspan dy="1em" x="7735" y="5156">414</tspan>
    </text><text data-component="svg__label" data-label-id="s_81" class="label" transform="" font-size="105">
      <tspan dy="1em" x="7608" y="4701">317</tspan>
    </text><text data-component="svg__label" data-label-id="s_80" class="label" transform="" font-size="178">
      <tspan dy="1em" x="1727" y="3112">436</tspan>
    </text><text data-component="svg__label" data-label-id="s_83" class="label" transform="" font-size="178">
      <tspan dy="1em" x="1661" y="2216">438</tspan>
    </text><text data-component="svg__label" data-label-id="s_82" class="label" transform="" font-size="160">
      <tspan dy="1em" x="6147" y="4825">114</tspan>
    </text><text data-component="svg__label" data-label-id="s_89" class="label" transform="" font-size="105">
      <tspan dy="1em" x="8165" y="2693">307</tspan>
    </text><text data-component="svg__label" data-label-id="s_85" class="label" transform="" font-size="105">
      <tspan dy="1em" x="7719" y="4518">316</tspan>
    </text><text data-component="svg__label" data-label-id="s_84" class="label" transform="" font-size="178">
      <tspan dy="1em" x="2673" y="2097">233</tspan>
    </text><text data-component="svg__label" data-label-id="s_87" class="label" transform="" font-size="178">
      <tspan dy="1em" x="3855" y="4066">124</tspan>
    </text><text data-component="svg__label" data-label-id="s_86" class="label" transform="" font-size="178">
      <tspan dy="1em" x="1838" y="3450">435</tspan>
    </text><text data-component="svg__label" data-label-id="s_173" class="label" transform="" font-size="178">
      <tspan dy="1em" x="7053" y="6084">417</tspan>
    </text><text data-component="svg__label" data-label-id="s_38" class="label" transform="" font-size="178">
      <tspan dy="1em" x="3134" y="5420">429</tspan>
    </text><text data-component="svg__label" data-label-id="s_176" class="label" transform="" font-size="178">
      <tspan dy="1em" x="7482" y="5485">415</tspan>
    </text><text data-component="svg__label" data-label-id="s_37" class="label" transform="" font-size="178">
      <tspan dy="1em" x="2668" y="4801">431</tspan>
    </text><text data-component="svg__label" data-label-id="s_39" class="label" transform="" font-size="178">
      <tspan dy="1em" x="3013" y="3907">228</tspan>
    </text><text data-component="svg__label" data-label-id="s_217" class="label" transform="" font-size="178">
      <tspan dy="1em" x="3070" y="1462">235</tspan>
    </text><text data-component="svg__label" data-label-id="s_34" class="label" transform="" font-size="178">
      <tspan dy="1em" x="2446" y="4497">432</tspan>
    </text><text data-component="svg__label" data-label-id="s_33" class="label" transform="" font-size="178">
      <tspan dy="1em" x="3334" y="4408">226</tspan>
    </text><text data-component="svg__label" data-label-id="s_36" class="label" transform="" font-size="105">
      <tspan dy="1em" x="2881" y="4451">344</tspan>
    </text><text data-component="svg__label" data-label-id="s_35" class="label" transform="" font-size="178">
      <tspan dy="1em" x="3165" y="4162">227</tspan>
    </text><text data-component="svg__label" data-label-id="s_30" class="label" transform="" font-size="178">
      <tspan dy="1em" x="2891" y="5096">430</tspan>
    </text><text data-component="svg__label" data-label-id="s_32" class="label" transform="" font-size="105">
      <tspan dy="1em" x="2778" y="4272">345</tspan>
    </text><text data-component="svg__label" data-label-id="s_31" class="label" transform="" font-size="105">
      <tspan dy="1em" x="3007" y="4637">343</tspan>
    </text><text data-component="svg__label" data-label-id="s_27" class="label" transform="" font-size="105">
      <tspan dy="1em" x="4128" y="6046">335</tspan>
    </text><text data-component="svg__label" data-label-id="s_26" class="label" transform="" font-size="105">
      <tspan dy="1em" x="4308" y="6180">334</tspan>
    </text><text data-component="svg__label" data-label-id="s_100" class="label" transform="" font-size="178">
      <tspan dy="1em" x="5319" y="6846">422</tspan>
    </text><text data-component="svg__label" data-label-id="s_221" class="label" transform="" font-size="121">
      <tspan dy="1em" x="6835" y="955">101</tspan>
    </text><text data-component="svg__label" data-label-id="s_29" class="label" transform="" font-size="105">
      <tspan dy="1em" x="3154" y="4834">342</tspan>
    </text><text data-component="svg__label" data-label-id="s_101" class="label" transform="" font-size="105">
      <tspan dy="1em" x="7478" y="4861">318</tspan>
    </text><text data-component="svg__label" data-label-id="s_189" class="label" transform="" font-size="178">
      <tspan dy="1em" x="7241" y="5799">416</tspan>
    </text><text data-component="svg__label" data-label-id="s_222" class="label" transform="" font-size="121">
      <tspan dy="1em" x="7114" y="1199">102</tspan>
    </text><text data-component="svg__label" data-label-id="s_28" class="label" transform="" font-size="105">
      <tspan dy="1em" x="3686" y="5533">338</tspan>
    </text><text data-component="svg__label" data-label-id="s_102" class="label" transform="" font-size="178">
      <tspan dy="1em" x="4271" y="4560">122</tspan>
    </text><text data-component="svg__label" data-label-id="s_223" class="label" transform="" font-size="178">
      <tspan dy="1em" x="7349" y="1496">103</tspan>
    </text><text data-component="svg__label" data-label-id="s_103" class="label" transform="" font-size="178">
      <tspan dy="1em" x="7113" y="4668">212</tspan>
    </text><text data-component="svg__label" data-label-id="s_224" class="label" transform="" font-size="178">
      <tspan dy="1em" x="7622" y="1736">104</tspan>
    </text><text data-component="svg__label" data-label-id="s_104" class="label" transform="" font-size="105">
      <tspan dy="1em" x="8164" y="3345">310</tspan>
    </text><text data-component="svg__label" data-label-id="s_225" class="label" transform="" font-size="121">
      <tspan dy="1em" x="6846" y="521">201</tspan>
    </text><text data-component="svg__label" data-label-id="s_105" class="label" transform="" font-size="178">
      <tspan dy="1em" x="8173" y="4541">412</tspan>
    </text><text data-component="svg__label" data-label-id="s_226" class="label" transform="" font-size="178">
      <tspan dy="1em" x="7088" y="701">202</tspan>
    </text><text data-component="svg__label" data-label-id="s_106" class="label" transform="" font-size="105">
      <tspan dy="1em" x="8095" y="3574">311</tspan>
    </text><text data-component="svg__label" data-label-id="s_227" class="label" transform="" font-size="178">
      <tspan dy="1em" x="7411" y="1016">203</tspan>
    </text><text data-component="svg__label" data-label-id="s_107" class="label" transform="" font-size="178">
      <tspan dy="1em" x="6568" y="4270">112</tspan>
    </text><text data-component="svg__label" data-label-id="s_228" class="label" transform="" font-size="178">
      <tspan dy="1em" x="7727" y="1262">204</tspan>
    </text><text data-component="svg__label" data-label-id="s_108" class="label" transform="" font-size="178">
      <tspan dy="1em" x="8463" y="3859">410</tspan>
    </text><text data-component="svg__label" data-label-id="s_229" class="label" transform="" font-size="121">
      <tspan dy="1em" x="7966" y="1501">205</tspan>
    </text><text data-component="svg__label" data-label-id="s_109" class="label" transform="" font-size="178">
      <tspan dy="1em" x="7765" y="2942">207</tspan>
    </text><text data-component="svg__label" data-label-id="s_25" class="label" transform="" font-size="105">
      <tspan dy="1em" x="4722" y="6370">332</tspan>
    </text><text data-component="svg__label" data-label-id="s_24" class="label" transform="" font-size="105">
      <tspan dy="1em" x="4509" y="6288">333</tspan>
    </text><text data-component="svg__label" data-label-id="s_190" class="label" transform="" font-size="105">
      <tspan dy="1em" x="8165" y="2519">306</tspan>
    </text><text data-component="svg__label" data-label-id="s_230" class="label" transform="" font-size="121">
      <tspan dy="1em" x="3362" y="1371">236</tspan>
    </text><text data-component="svg__label" data-label-id="s_110" class="label" transform="" font-size="178">
      <tspan dy="1em" x="3231" y="3011">128</tspan>
    </text><text data-component="svg__label" data-label-id="s_231" class="label" transform="" font-size="178">
      <tspan dy="1em" x="2128" y="1199">441</tspan>
    </text><text data-component="svg__label" data-label-id="s_59" class="label" transform="" font-size="105">
      <tspan dy="1em" x="3430" y="5191">340</tspan>
    </text><text data-component="svg__label" data-label-id="s_111" class="label" transform="" font-size="178">
      <tspan dy="1em" x="6907" y="4936">213</tspan>
    </text><text data-component="svg__label" data-label-id="s_232" class="label" transform="" font-size="178">
      <tspan dy="1em" x="2389" y="990">442</tspan>
    </text><text data-component="svg__label" data-label-id="s_112" class="label" transform="" font-size="178">
      <tspan dy="1em" x="8332" y="4181">411</tspan>
    </text><text data-component="svg__label" data-label-id="s_113" class="label" transform="" font-size="105">
      <tspan dy="1em" x="6004" y="6342">327</tspan>
    </text><text data-component="svg__label" data-label-id="s_115" class="label" transform="" font-size="105">
      <tspan dy="1em" x="6458" y="6100">325</tspan>
    </text><text data-component="svg__label" data-label-id="s_116" class="label" transform="" font-size="178">
      <tspan dy="1em" x="7776" y="3309">208</tspan>
    </text><text data-component="svg__label" data-label-id="s_118" class="label" transform="" font-size="178">
      <tspan dy="1em" x="8611" y="3535">409</tspan>
    </text><text data-component="svg__label" data-label-id="s_119" class="label" transform="" font-size="178">
      <tspan dy="1em" x="3138" y="2739">129</tspan>
    </text><text data-component="svg__label" data-label-id="s_50" class="label" transform="" font-size="178">
      <tspan dy="1em" x="4149" y="6589">425</tspan>
    </text><text data-component="svg__label" data-label-id="s_56" class="label" transform="" font-size="160">
      <tspan dy="1em" x="4648" y="5026">120</tspan>
    </text><text data-component="svg__label" data-label-id="s_55" class="label" transform="" font-size="105">
      <tspan dy="1em" x="3943" y="5866">336</tspan>
    </text><text data-component="svg__label" data-label-id="s_58" class="label" transform="" font-size="160">
      <tspan dy="1em" x="5483" y="5386">117</tspan>
    </text><text data-component="svg__label" data-label-id="s_57" class="label" transform="" font-size="178">
      <tspan dy="1em" x="2544" y="2471">232</tspan>
    </text><text data-component="svg__label" data-label-id="s_52" class="label" transform="" font-size="178">
      <tspan dy="1em" x="2650" y="3274">230</tspan>
    </text><text data-component="svg__label" data-label-id="s_51" class="label" transform="" font-size="105">
      <tspan dy="1em" x="3555" y="5359">339</tspan>
    </text><text data-component="svg__label" data-label-id="s_54" class="label" transform="" font-size="178">
      <tspan dy="1em" x="2234" y="4123">433</tspan>
    </text><text data-component="svg__label" data-label-id="s_53" class="label" transform="" font-size="178">
      <tspan dy="1em" x="3837" y="6300">426</tspan>
    </text><text data-component="svg__label" data-label-id="s_120" class="label" transform="" font-size="178">
      <tspan dy="1em" x="7053" y="3411">109</tspan>
    </text><text data-component="svg__label" data-label-id="s_49" class="label" transform="" font-size="105">
      <tspan dy="1em" x="3807" y="5710">337</tspan>
    </text><text data-component="svg__label" data-label-id="s_121" class="label" transform="" font-size="178">
      <tspan dy="1em" x="7777" y="2576">206</tspan>
    </text><text data-component="svg__label" data-label-id="s_48" class="label" transform="" font-size="178">
      <tspan dy="1em" x="3941" y="5206">223</tspan>
    </text><text data-component="svg__label" data-label-id="s_122" class="label" transform="" font-size="105">
      <tspan dy="1em" x="6243" y="6234">326</tspan>
    </text><text data-component="svg__label" data-label-id="s_124" class="label" transform="" font-size="178">
      <tspan dy="1em" x="8643" y="2837">407</tspan>
    </text><text data-component="svg__label" data-label-id="s_125" class="label" transform="" font-size="178">
      <tspan dy="1em" x="7206" y="3136">108</tspan>
    </text><text data-component="svg__label" data-label-id="s_126" class="label" transform="" font-size="178">
      <tspan dy="1em" x="8643" y="2504">406</tspan>
    </text><text data-component="svg__label" data-label-id="s_128" class="label" transform="" font-size="160">
      <tspan dy="1em" x="4476" y="5641">221</tspan>
    </text><text data-component="svg__label" data-label-id="s_129" class="label" transform="" font-size="105">
      <tspan dy="1em" x="5189" y="6465">330</tspan>
    </text><text data-component="svg__label" data-label-id="s_45" class="label" transform="" font-size="105">
      <tspan dy="1em" x="4947" y="6431">331</tspan>
    </text><text data-component="svg__label" data-label-id="s_44" class="label" transform="" font-size="105">
      <tspan dy="1em" x="3285" y="5014">341</tspan>
    </text><text data-component="svg__label" data-label-id="s_47" class="label" transform="" font-size="178">
      <tspan dy="1em" x="3378" y="5744">428</tspan>
    </text><text data-component="svg__label" data-label-id="s_46" class="label" transform="" font-size="178">
      <tspan dy="1em" x="3531" y="4667">225</tspan>
    </text><text data-component="svg__label" data-label-id="s_41" class="label" transform="" font-size="178">
      <tspan dy="1em" x="3618" y="6030">427</tspan>
    </text><text data-component="svg__label" data-label-id="s_40" class="label" transform="" font-size="178">
      <tspan dy="1em" x="2838" y="3605">229</tspan>
    </text><text data-component="svg__label" data-label-id="s_43" class="label" transform="" font-size="178">
      <tspan dy="1em" x="3735" y="4936">224</tspan>
    </text><text data-component="svg__label" data-label-id="s_42" class="label" transform="" font-size="178">
      <tspan dy="1em" x="4488" y="6751">424</tspan>
    </text></g>
</svg>